<?xml version="1.0" encoding="iso-8859-1"?>
<!-- Generator: Adobe Illustrator 19.0.0, SVG Export Plug-In . SVG Version: 6.00 Build 0)  -->
<svg version="1.1" id="Layer_1" xmlns="http://www.w3.org/2000/svg" xmlns:xlink="http://www.w3.org/1999/xlink" x="0px" y="0px"
	 viewBox="0 0 512 512" style="enable-background:new 0 0 512 512;" xml:space="preserve">
<g>
	<g>
		<path d="M493.196,186.649h-17.02v37.608h17.02c10.385,0,18.804-8.419,18.804-18.804C512,195.068,503.581,186.649,493.196,186.649z
			"/>
	</g>
</g>
<g>
	<g>
		<path d="M18.804,186.649C8.419,186.649,0,195.068,0,205.453c0,10.385,8.419,18.804,18.804,18.804h17.02v-37.608H18.804z"/>
	</g>
</g>
<g>
	<g>
		<path d="M374.033,16.038H137.967c-42.497,0-77.071,34.574-77.071,77.071v207.75c0,107.58,87.524,195.103,195.103,195.103
			s195.103-87.522,195.103-195.103V93.11C451.104,50.613,416.53,16.038,374.033,16.038z M131.977,167.847
			c-2.131,0-4.29-0.544-6.268-1.689c-5.992-3.469-8.039-11.137-4.571-17.129c11.022-19.045,31.524-30.876,53.508-30.876
			c21.977,0,42.478,11.826,53.501,30.862c3.47,5.991,1.425,13.66-4.567,17.13c-5.992,3.469-13.66,1.425-17.13-4.568
			c-6.555-11.32-18.742-18.354-31.804-18.354c-13.066,0-25.254,7.035-31.809,18.361
			C140.516,165.603,136.305,167.847,131.977,167.847z M257.334,404.64h-2.669c-59.69,0-108.252-48.562-108.252-108.252
			c0-6.924,5.612-12.536,12.536-12.536c6.924,0,12.536,5.612,12.536,12.536c0,45.865,37.315,83.18,83.18,83.18h2.669
			c45.865,0,83.18-37.315,83.18-83.18c0-6.924,5.612-12.536,12.536-12.536s12.536,5.612,12.536,12.536
			C365.586,356.08,317.024,404.64,257.334,404.64z M386.292,166.147c-5.991,3.469-13.66,1.424-17.13-4.568
			c-6.555-11.32-18.741-18.354-31.804-18.354c-13.066,0-25.254,7.035-31.809,18.361c-2.324,4.015-6.534,6.259-10.862,6.259
			c-2.131,0-4.29-0.544-6.268-1.689c-5.992-3.469-8.039-11.137-4.571-17.129c11.022-19.045,31.524-30.876,53.509-30.876
			c21.978,0,42.478,11.826,53.501,30.862C394.329,155.008,392.283,162.677,386.292,166.147z"/>
	</g>
</g>
<g>
</g>
<g>
</g>
<g>
</g>
<g>
</g>
<g>
</g>
<g>
</g>
<g>
</g>
<g>
</g>
<g>
</g>
<g>
</g>
<g>
</g>
<g>
</g>
<g>
</g>
<g>
</g>
<g>
</g>
</svg>
